<?xml version="1.0" encoding="UTF-8"?>
<svg id="Camada_1" data-name="Camada 1" xmlns="http://www.w3.org/2000/svg" viewBox="0 0 134.45 134.45">
  <defs>
    <style>
      .cls-1 {
        font-family: Montserrat-Bold, Montserrat;
        font-size: 7px;
        font-variation-settings: 'wght' 700;
        font-weight: 700;
      }

      .cls-1, .cls-2 {
        fill: #fff;
      }

      .cls-3 {
        fill: none;
      }

      .cls-4 {
        fill: #002d82;
      }

      .cls-5 {
        letter-spacing: 0em;
      }

      .cls-6 {
        letter-spacing: 0em;
      }

      .cls-7 {
        fill: #ffdf00;
      }

      .cls-8 {
        letter-spacing: 0em;
      }
    </style>
  </defs>
  <g>
    <rect class="cls-7" x="17.16" y="17.16" width="100.14" height="100.14" rx="8.65" ry="8.65" transform="translate(67.23 -27.85) rotate(45)"/>
    <rect class="cls-4" x="27.84" y="27.84" width="78.78" height="78.78" rx="8.65" ry="8.65" transform="translate(67.23 -27.85) rotate(45)"/>
    <g>
      <path class="cls-2" d="M80.7,41.99c-.74,0-1.34.6-1.34,1.34s.6,1.34,1.34,1.34,1.34-.6,1.34-1.34-.6-1.34-1.34-1.34ZM80.7,44.1c-.43,0-.77-.35-.77-.77s.35-.77.77-.77.77.35.77.77-.35.77-.77.77Z"/>
      <path class="cls-2" d="M46.57,47.7c-.74,0-1.34.6-1.34,1.34s.6,1.34,1.34,1.34,1.34-.6,1.34-1.34-.6-1.34-1.34-1.34ZM46.57,49.81c-.43,0-.77-.35-.77-.77s.35-.77.77-.77.77.35.77.77-.35.77-.77.77Z"/>
      <ellipse class="cls-2" cx="66.82" cy="89.23" rx="12.85" ry=".72"/>
      <path class="cls-2" d="M64.72,81.05s.33-.71.64-.81c0,0-1.92-1.83-3.77-2.31,0,0,.04.61-.31,1.01,0,0,1.94.54,3.41,2.11"/>
      <polygon class="cls-2" points="93.18 41.55 93.18 46.8 91.47 45.18 90.55 44.49 88.29 43.67 93.18 41.55"/>
      <path class="cls-2" d="M66.05,54.38s.05.08.05.15c0,.04,0,.08-.02.1,0,0,.01,0,.02,0,.22.05.35.28.29.51-.06.23-.28.38-.49.33s-.35-.28-.29-.51c.04-.18.18-.3.35-.33-.01-.03-.02-.06-.02-.1,0-.08.03-.14.06-.16-.11-.01-.22-.02-.33-.02-1.57,0-2.84,1.48-2.84,3.31s1.27,3.31,2.84,3.31,2.84-1.48,2.84-3.31c0-1.68-1.07-3.06-2.46-3.28ZM65.06,55.9c-.71,1.21-.27,2.19-.27,2.19-.45-.03-.62-.48-.62-.48,0,0-.24-.39-.07-1.17s.61-1.04.61-1.04c0,0,.26-.22.48-.02.22.2-.12.52-.12.52ZM66.09,56.62c-.04.48-.13.86-.2.85-.07,0-.1-.4-.05-.87.04-.48.13-.86.2-.85s.1.4.05.87Z"/>
      <path class="cls-2" d="M75.08,51.94s-.03.08-.08.11c-.03.02-.05.03-.08.04,0,0,0,0,0,.01.08.17,0,.38-.19.46-.18.08-.4,0-.48-.16s0-.38.19-.46c.14-.06.3-.03.4.06.01-.02.03-.04.06-.06.05-.04.11-.06.14-.04-.05-.08-.1-.16-.16-.23-.82-1.06-2.48-1.15-3.71-.2s-1.55,2.58-.73,3.64,2.48,1.15,3.71.2c1.12-.87,1.49-2.31.91-3.36ZM73.54,52.06c-1.18.15-1.61.96-1.61.96-.22-.32,0-.67,0-.67,0,0,.13-.36.75-.66s1.01-.13,1.01-.13c0,0,.28.06.26.31-.02.25-.42.19-.42.19ZM73.59,53.13c-.34.22-.64.36-.67.3-.03-.05.22-.27.56-.49.34-.22.64-.36.67-.3s-.22.27-.56.49Z"/>
      <path class="cls-2" d="M64.39,68.18s-.03-.09-.02-.16c0-.04.02-.07.04-.1,0,0,0,0-.01,0-.2-.09-.29-.34-.2-.56.1-.22.34-.32.54-.23s.29.34.2.56c-.07.17-.24.27-.4.26,0,.03,0,.07,0,.1-.01.07-.05.13-.09.15.1.03.21.06.32.08,1.54.28,3.06-.95,3.39-2.75s-.66-3.49-2.2-3.77-3.06.95-3.39,2.75c-.3,1.65.5,3.2,1.83,3.67ZM65.64,66.86c.91-1.06.66-2.11.66-2.11.44.11.52.59.52.59,0,0,.16.42-.14,1.17s-.78.91-.78.91c0,0-.29.17-.47-.06-.18-.24.22-.49.22-.49ZM64.76,65.97c.13-.46.28-.82.35-.8.07.02.02.41-.1.87-.13.46-.28.82-.35.8s-.02-.41.1-.87Z"/>
      <path class="cls-2" d="M58.1,80.19c1.63.25,3.13-.68,3.34-2.08s-.93-2.74-2.56-2.99-3.13.68-3.34,2.08c-.02.1-.02.2-.02.29.02-.03.08-.04.15-.03.03,0,.06.02.09.03.04-.14.18-.25.34-.26.21-.02.4.13.42.33s-.14.38-.36.39c-.21.02-.4-.13-.42-.33,0,0,0,0,0-.01-.03,0-.06,0-.1,0-.06,0-.11-.03-.13-.06,0,1.27,1.1,2.41,2.59,2.64ZM56.52,76.91c-.15-.23.08-.42.08-.42,0,0,.29-.36,1.01-.4s1.03.23,1.03.23c0,0,.39.21.35.62,0,0-.81-.53-1.99-.06,0,0-.33.26-.48.04ZM56.73,77.72c0-.06.36-.09.78-.06.43.03.77.1.77.17,0,.06-.36.09-.78.06-.43-.03-.77-.1-.77-.17Z"/>
      <path class="cls-2" d="M63.93,54.59c.05-.01.1-.02.15-.03-.11-.77-.5-1.54-1.15-2.14-1.33-1.22-3.24-1.26-4.26-.08-.07.08-.14.17-.2.26.04-.01.1.01.16.06.03.03.05.05.06.08.12-.1.31-.13.47-.04.2.11.29.36.18.56s-.35.26-.56.15c-.2-.11-.29-.36-.18-.56,0,0,0,0,0-.01-.03-.01-.06-.03-.09-.06-.05-.04-.08-.1-.08-.14-.74,1.18-.43,2.9.78,4.02.92.85,2.12,1.12,3.12.82-.03-.07-.05-.15-.07-.23-.29-1.17.45-2.36,1.67-2.67ZM60.79,54.58c-.04.06-.38-.13-.75-.42-.37-.29-.64-.56-.6-.62s.38.13.75.42c.37.29.64.56.6.62ZM60.19,52.92s-.46.04-.46-.26c0-.3.33-.34.33-.34,0,0,.47-.16,1.15.24.68.4.8.83.8.83,0,0,.22.43-.05.78,0,0-.43-.98-1.77-1.26Z"/>
      <path class="cls-2" d="M68.35,59.89c-.06.04-.13.07-.19.1.43.81,1.36,1.4,2.47,1.45,1.47.07,2.75-.81,3.03-2.02-.03.02-.08.04-.14.04-.03,0-.07,0-.09-.02,0,0,0,0,0,.01-.06.19-.27.29-.47.24-.2-.06-.31-.26-.25-.45s.27-.29.47-.24c.15.04.26.17.27.32.03,0,.06-.01.09-.01.07,0,.12.03.14.06.02-.09.03-.19.04-.29.1-1.38-1.12-2.56-2.72-2.64-.79-.04-1.52.2-2.07.61.03.04.05.08.07.11.57.96.28,2.17-.64,2.72ZM71.73,59.13c.41.06.74.15.73.21s-.35.07-.77.01c-.41-.06-.74-.15-.73-.21,0-.06.35-.07.77-.01ZM70.49,58.15c.05-.4.46-.52.46-.52,0,0,.35-.19,1.03-.01.68.18.87.58.87.58,0,0,.18.23-.01.42-.19.19-.45-.13-.45-.13-1.02-.67-1.9-.33-1.9-.33Z"/>
      <polygon class="cls-2" points="69.03 56.7 68.82 56.24 70.12 55.06 70.61 55.7 70.03 56.27 69.03 56.7"/>
      <path class="cls-2" d="M62.27,59.36c0-.23.06-.45.15-.64-.56-.37-1.27-.59-2.04-.58-1.83.01-3.3,1.3-3.29,2.87,0,.11,0,.22.02.33.02-.03.08-.06.16-.06.04,0,.07,0,.1.02.02-.16.15-.3.33-.35.23-.06.46.07.51.29.05.22-.09.44-.32.5-.23.06-.46-.07-.51-.29,0,0,0-.01,0-.02-.03.01-.06.02-.1.02-.07,0-.12-.02-.15-.05.23,1.39,1.62,2.44,3.3,2.43,1.83-.01,3.3-1.3,3.29-2.87,0-.02,0-.05,0-.07-.82-.09-1.45-.74-1.45-1.52ZM59.37,61.41c-.47.04-.87.02-.87-.05,0-.07.37-.16.85-.21.47-.04.87-.02.87.05,0,.07-.37.16-.85.21ZM58.64,60.39s-.32.35-.52.13c-.2-.22.02-.48.02-.48,0,0,.25-.44,1.03-.61s1.17.06,1.17.06c0,0,.46.16.49.62,0,0-.98-.43-2.19.28Z"/>
      <path class="cls-2" d="M42.94,72.41s2.6,9.52,12.79,15.16c0,0-.43,1-5.75-3.14s-7.74-12.42-7.74-12.42c0,0,.16.27.7.39Z"/>
      <path class="cls-2" d="M45.54,50.67s0,0,0,0c.05.1.04.22-.02.31-.52.74-2.24,3.46-3.23,8.27-.02.07-.06.14-.12.19-.15.1-.42.21-.54-.2-.16-.54,1.53-5.96,3.4-8.61.13-.18.41-.17.51.03Z"/>
      <path class="cls-2" d="M47.66,48.18c.74-1.01,3.81-4.74,9.99-7.41.03-.01.06-.03.08-.05.16-.14.66-.62-.3-.36-1.09.3-7.36,3.28-10.29,7.42-.11.15-.07.36.08.47h0c.14.1.34.07.44-.07Z"/>
      <path class="cls-2" d="M81.98,44.51c0-.1.06-.19.23-.19.12,0,.23.05.31.13.49.44,2.56,2.32,3.02,3.09.52.87.23.99.23.99,0,0-2.81-3.13-3.62-3.67-.12-.08-.19-.21-.18-.36Z"/>
      <path class="cls-2" d="M79.02,42.56l.34-.42s-1.53-.95-2.75-1.38-.64.29-.64.29c0,0,2.13.64,3.05,1.51Z"/>
      <path class="cls-2" d="M80.74,86.76s6.69-3.02,11.08-12.89c0,0,.62-1.02.29.27s-3.09,8.5-11.14,13.17c0,0-3.38,1.55-.23-.55Z"/>
      <path class="cls-2" d="M67.93,32.63s-15.46,10.34-3.05,20.52c0,0,.61.41.4.76,0,0,.88-.29,1.62.12,0,0-.16-.64.78-1,.93-.35,11.82-7.97.25-20.4ZM69.51,47.18s-2.38,1.86-3.45,1.99v4.37s-.95-.26-.89-5.38c0,0-2.43-1.52-3.52-4.92,0,0,0-.54.25,0,.25.54,2.49,3.89,3.23,4.06l.29-3.56s-1.85-1.9-1.98-4.76c0,0,.04-.41.14,0s.8,2.78,1.96,3.81c0,0,1.1-6.28,1.86-7.6,0,0,.35-1.17.2,0l-.55,5.43s2.45-1.44,2.84-2.51c0,0,.15-.22.04.17,0,0-.89,2.47-2.91,2.96l-.42,3.37s3.54-1.93,4.03-2.96c0,0,.39-.47.21.21-.18.68-3.66,3.32-4.21,3.42l-.53,3.64s.96-1.04,2.9-1.98c0,0,.99-.52,1.73-1.43,0,0,.62-.66.2.15,0,0-.76,1.02-1.44,1.51Z"/>
      <path class="cls-2" d="M87.78,61.15c-5.05,1.5-7.08,5.84-7.08,5.84,0,0-.86,2.32-.94,4.12l.75,1.31s12.09,5.88,17.15-9.66c0,0-4.83-3.11-9.88-1.61ZM95.77,62.83l-4.6,2.58s2.5,1.14,3.56.86c0,0,.25,0-.11.13,0,0-2.45.66-3.96-.66l-2.9,1.54s3.49,1.73,4.58,1.55c0,0,.59.05-.05.28s-4.66-1.06-5.04-1.44l-3.18,1.6s1.36.18,3.18,1.2c0,0,.97.49,2.09.58,0,0,.86.13,0,.25,0,0-1.23-.03-1.99-.31,0,0-2.79-.85-3.48-1.63l-3.46,2.42s-.32-.9,3.76-3.69c0,0-.15-2.76,1.94-5.51,0,0,.43-.3.14.2-.29.5-1.7,4.13-1.43,4.81l2.98-1.74s.48-2.52,2.67-4.21c0,0,.34-.2.08.11s-1.76,2.17-1.93,3.67c0,0,5.58-2.61,7.05-2.74,0,0,1.12-.37.11.16Z"/>
      <path class="cls-2" d="M65.5,68.67s.68.02,1.24-.37l.48,11.42s-.57-.4-1.31.13c0,0-1.22-4.83-9.68-7.13l.84-1.33s5.84,1.93,8.7,5.61l-.27-8.34Z"/>
      <g>
        <circle class="cls-3" cx="67.04" cy="82.22" r="1.27"/>
        <path class="cls-3" d="M74.68,69.24c-.7,0-1.27.57-1.27,1.27s.57,1.27,1.27,1.27,1.27-.57,1.27-1.27-.57-1.27-1.27-1.27Z"/>
        <path class="cls-3" d="M85.03,52.9c-.62,0-1.12.5-1.12,1.12s.5,1.12,1.12,1.12,1.12-.5,1.12-1.12-.5-1.12-1.12-1.12Z"/>
        <path class="cls-2" d="M91.67,44.93l-.94-.61-5.22,7.82c-.16-.04-.32-.07-.49-.07-1.07,0-1.95.87-1.95,1.95,0,.49.19.94.49,1.28l-8.44,13.05h0c-.15-.03-.3-.05-.46-.05-.29,0-.57.06-.83.16l-6.06-7.7-.97.63,6.23,7.64c-.36.39-.58.91-.58,1.48s.24,1.14.63,1.54l-5.25,8.12c-.25-.1-.52-.16-.81-.16-1.22,0-2.21.99-2.21,2.21,0,.42.12.8.32,1.14l-6.33,5.31,2.06-.08,5.19-4.34v4.26h1.32v-4.12c1.05-.17,1.85-1.08,1.85-2.17,0-.48-.16-.92-.42-1.28l5.24-8.31-.02-.02c.2.06.41.1.62.1.66,0,1.24-.29,1.64-.74,1.95.8,4.4.54,4.4.54l-.43-.91c-.15-.31.16-.71-.15-.59-1.45.57-2.88.19-3.32.05.05-.18.08-.36.08-.56,0-.66-.29-1.24-.75-1.65l.03.02,8.24-13-.05-.04c.21.08.44.13.68.13,1.07,0,1.95-.87,1.95-1.95,0-.47-.17-.9-.45-1.23l5.15-7.86ZM67.04,83.49c-.7,0-1.27-.57-1.27-1.27s.57-1.27,1.27-1.27,1.27.57,1.27,1.27-.57,1.27-1.27,1.27ZM74.68,71.78c-.7,0-1.27-.57-1.27-1.27s.57-1.27,1.27-1.27,1.27.57,1.27,1.27-.57,1.27-1.27,1.27ZM85.03,55.14c-.62,0-1.12-.5-1.12-1.12s.5-1.12,1.12-1.12,1.12.5,1.12,1.12-.5,1.12-1.12,1.12Z"/>
      </g>
      <path class="cls-2" d="M56.09,67.17s-2.11-4.45-7.39-5.99c-5.28-1.53-10.32,1.65-10.32,1.65,5.28,15.92,17.9,9.9,17.9,9.9l.78-1.34c-.08-1.84-.98-4.22-.98-4.22ZM51.8,70.12s-2.33,1.36-5.65.78c0,0-.45-.24.11-.21.57.03,4.34-.37,4.81-.91l-2.84-1.8s-2.4.71-4.85-.43c0,0-.32-.21.06-.11.38.1,2.67.55,4.04.03,0,0-4.76-3.67-5.53-4.89,0,0-.82-.81.09-.16l4.29,2.84s-.13-2.68-.85-3.47c0,0-.12-.22.17.04,0,0,1.67,1.83,1.2,3.73l2.63,1.83s-.06-3.8-.71-4.67c0,0-.22-.53.27-.08s1.17,4.51,1.01,5.01l2.81,2.04s-.45-1.26-.38-3.29c0,0,0-1.06-.43-2.08,0,0-.28-.81.22-.1,0,0,.52,1.08.63,1.87,0,0,.51,2.8.15,3.75l3.64,1.91s-.64.68-4.88-1.61Z"/>
    </g>
  </g>
  <text class="cls-1" transform="translate(54.39 101.25)"><tspan class="cls-5" x="0" y="0">A</tspan><tspan x="5.33" y="0">g</tspan><tspan class="cls-8" x="10.23" y="0">r</tspan><tspan class="cls-6" x="13.18" y="0">o</tspan><tspan x="17.72" y="0">.in</tspan></text>
</svg>